<?xml version="1.0" encoding="utf-8"?>
<!-- Generator: Adobe Illustrator 26.3.1, SVG Export Plug-In . SVG Version: 6.00 Build 0)  -->
<svg version="1.1" id="Layer_1" xmlns="http://www.w3.org/2000/svg" xmlns:xlink="http://www.w3.org/1999/xlink" x="0px" y="0px"
	 viewBox="0 0 780.4 270.7" style="enable-background:new 0 0 780.4 270.7;" xml:space="preserve">
<style type="text/css">
	.st0{fill:#FFFFFF;}
	.st1{font-family:'Lato-Black';}
	.st2{font-size:79.94px;}
	.st3{letter-spacing:5;}
	.st4{letter-spacing:3;}
	.st5{font-size:111.87px;}
	.st6{letter-spacing:7;}
</style>
<text transform="matrix(1 0 0 1 323.46 120.72)" class="st0 st1 st2 st3">COINCARE</text>
<text transform="matrix(1 0 0 1 323.46 206.04)" class="st0 st1 st2 st3">G</text>
<text transform="matrix(1 0 0 1 385.97 206.04)" class="st0 st1 st2 st4">R</text>
<text transform="matrix(1 0 0 1 442.72 206.04)" class="st0 st1 st2 st3">OUP</text>
<g>
	<text transform="matrix(1 0 0 1 96.21 178.52)" class="st0 st1 st5 st6">C</text>
	<g>
		<path class="st0" d="M85.3,15.7c0,0,13.6-4.3,10.5,0c-1.3,1.8-16.5,12.6-18.1,15c-6.8,9.9-17.3,22.2-21.6,35.2
			c-5.5,16.9-3.7,34.1-5.2,33.9c-2-0.2-4.4-6.9-4.6-14.4c-0.2-6.6,1.5-13.6,3.2-17.5C43.7,75,41.3,81,39.2,97.7
			c-2.1,16.7,4.4,32.4,1.2,33.8c-3.3,1.4-10.4-26.1-6-47.9c0,0-3.5,15.8-2.8,28.3c0.7,12.5,6.1,28.5,2.8,28.5s-10.7-32.6-6.7-58
			c0,0-3.3,11.7-3.1,26.3s4.9,24.2,2.2,25.3c-2.7,1.1-11.3-21.8-6.2-52.2c0,0-3.2,9.8-3.5,20.1c-0.2,9,3.7,18.3,0.4,18.8
			S-5.8,47.4,79,17.5L85.3,15.7L85.3,15.7z"/>
		<path class="st0" d="M181.6,14.7c0,0,10.4,7,7.6,7.5s-18.1-1.7-22.7-0.7c-11.3,2.4-27.4,2.6-39.4,8.7
			c-15.9,8.1-26.7,21.5-27.7,20.3c-1.3-1.5,1.8-8,6.9-13.4c4.5-4.8,10.7-8.6,14.6-10.1c-9.1,1-15,3.5-28.2,13.8
			C79.3,51.1,72.8,66.8,69.5,65.5s11.1-25.8,29.6-38.1c0,0-13.7,8.7-22.1,18c-8.3,9.3-15.8,24.5-18.1,22.1
			c-2.3-2.3,15.5-30.6,36.3-45.8c0,0-10.6,5.9-20.8,16.4C64.2,48.8,60.8,58.8,58.1,57.7c-2.7-1.2,7.4-23.4,32.5-41.3
			c0,0-9.2,4.7-16.7,11.8c-6.5,6.2-10.3,15.6-13,13.6s35.4-68.4,116.6-29.6L181.6,14.7L181.6,14.7z"/>
		<path class="st0" d="M254.8,84.8c0,0,3.1,12-1.1,9c-2-1.4-11.3-14.3-13.9-16.1c-9.8-6.6-22.3-17.5-34.9-21.6
			c-16.9-5.5-34.1-3.7-33.9-5.2c0.2-2,6.9-4.4,14.4-4.6c6.6-0.2,13.6,1.5,17.5,3.2c-7.1-5.8-13.1-8.1-29.8-10.2
			c-16.7-2.1-32.4,4.4-33.8,1.2c-1.4-3.3,26.1-10.4,47.9-6c0,0-15.8-3.5-28.3-2.8s-28.5,6.1-28.5,2.8s32.6-10.7,58-6.7
			c0,0-11.7-3.3-26.3-3.1s-24.2,4.9-25.3,2.2c-1.1-2.7,21.8-11.3,52.2-6.2c0,0-9.8-3.2-20.1-3.5c-9-0.2-18.3,3.7-18.8,0.4
			S223.2-5.8,253.2,79L254.8,84.8L254.8,84.8z"/>
		<path class="st0" d="M255.4,185.7c0,0-4.7,12.4-6.3,3.4c-0.9-5,1.9-29.6,0.4-35.5c-2.2-8.7-5.2-17.7-8.9-25.2
			c-8.1-15.9-21.5-26.7-20.3-27.7c1.5-1.3,8,1.8,13.4,6.9c4.8,4.5,8.6,10.7,10.1,14.6c-0.9-9.1-3.5-15-13.8-28.2
			c-10.4-13.3-26.1-19.8-24.7-23.1S231,82,243.3,100.5c0,0-8.7-13.7-18-22.1c-9.3-8.3-24.5-15.8-22.1-18.1
			c2.3-2.3,30.6,15.5,45.8,36.3c0,0-5.9-10.6-16.4-20.8c-10.5-10.2-20.6-13.7-19.5-16.3c1.2-2.7,23.4,7.4,41.3,32.5
			c0,0-4.7-9.2-11.8-16.7c-6.2-6.5-15.6-10.3-13.6-13c2-2.7,68.4,35.4,29.6,116.6L255.4,185.7L255.4,185.7z"/>
		<path class="st0" d="M182.9,256c0,0-12.4,5.9-8,0c2.2-2.9,20.4-16,23-19.8c6.4-9.4,13.2-20.9,16.6-31.4
			c5.5-16.9,3.7-34.1,5.2-33.9c2,0.2,4.4,6.9,4.6,14.4c0.2,6.6-1.5,13.6-3.1,17.5c5.8-7.1,8.1-13.1,10.2-29.8
			c2.1-16.7-4.4-32.4-1.2-33.8c3.3-1.4,10.4,26.1,6,47.9c0,0,3.5-15.8,2.8-28.3c-0.7-12.5-6.1-28.5-2.8-28.5s10.7,32.6,6.7,58
			c0,0,3.3-11.7,3.1-26.3s-4.9-24.2-2.2-25.3c2.7-1.1,11.3,21.8,6.2,52.2c0,0,3.2-9.8,3.5-20.1c0.2-9-3.7-18.3-0.4-18.8
			c3.3-0.5,23.3,73.4-61.5,103.4L182.9,256L182.9,256z"/>
		<path class="st0" d="M84.2,254.7c0,0-11.9-3.6-3.8-4.9c4.5-0.7,27.4,1.5,32.9,0.3c9.8-2.2,20.4-5.3,28.9-9.6
			c15.9-8.1,26.7-21.5,27.7-20.3c1.3,1.5-1.8,8-6.9,13.4c-4.5,4.8-10.7,8.6-14.6,10.1c9.1-0.9,15-3.5,28.2-13.8
			c13.3-10.4,19.8-26.1,23.1-24.7s-11.1,25.8-29.6,38.1c0,0,13.7-8.7,22.1-18c8.3-9.3,15.8-24.5,18.1-22.1
			c2.3,2.3-15.5,30.6-36.3,45.8c0,0,10.6-5.9,20.8-16.4c10.2-10.5,13.7-20.6,16.4-19.5c2.7,1.2-7.4,23.4-32.5,41.3
			c0,0,9.2-4.7,16.7-11.8c6.5-6.2,10.3-15.6,13-13.6S173,297.3,91.8,258.5L84.2,254.7L84.2,254.7z"/>
		<path class="st0" d="M16.1,186.4c0,0-8.6-25.9,15.9,9.5c8.6,6.6,22.2,14.9,33.8,18.7c16.9,5.5,34.1,3.7,34,5.2
			c-0.2,2-6.9,4.4-14.4,4.6c-6.6,0.2-13.6-1.5-17.5-3.1c7.1,5.8,13.1,8.1,29.8,10.2c16.7,2.1,32.4-4.4,33.8-1.2
			c1.4,3.3-26.1,10.4-47.9,6c0,0,15.8,3.5,28.3,2.8s28.5-6.1,28.5-2.8s-32.6,10.7-58,6.7c0,0,11.7,3.3,26.3,3.1s24.2-4.9,25.3-2.2
			c1.1,2.7-21.8,11.3-52.2,6.2c0,0,9.8,3.2,20.1,3.5c9,0.2,18.3-3.7,18.8-0.4s-73.4,23.3-103.4-61.5L16.1,186.4L16.1,186.4z"/>
		<path class="st0" d="M15.1,85.9c0,0,7.1-11.6,8.1-6.1c0.4,2.2-3.3,19.8-2.8,22.6c2.3,11.8,3.6,27.8,9.7,39.8
			c8.1,15.9,21.5,26.7,20.3,27.7c-1.5,1.3-8-1.8-13.4-6.9c-4.8-4.5-8.6-10.7-10.1-14.6c1,9.1,3.5,15,13.8,28.2
			c10.3,13.3,26.1,19.8,24.7,23.1s-25.8-11.1-38.1-29.6c0,0,8.7,13.7,18,22.1c9.3,8.3,24.5,15.8,22.1,18.1
			c-2.3,2.3-30.6-15.5-45.8-36.3c0,0,5.9,10.6,16.4,20.8c10.5,10.2,20.6,13.7,19.5,16.4c-1.2,2.7-23.4-7.4-41.3-32.5
			c0,0,4.7,9.2,11.8,16.7c6.2,6.5,15.6,10.3,13.6,13S-26.6,173,12.1,91.8L15.1,85.9L15.1,85.9z"/>
		<path class="st0" d="M39.2,97.7c1.3-10.8,2.8-17.1,5.2-22.1c-8.2-3.9-15.1-10.2-19.2-18.7c-19.7,31-9.9,64.3-7.7,64
			c3.3-0.5-0.6-9.8-0.4-18.8c0.3-10.3,3.5-20.1,3.5-20.1c-5.1,30.3,3.5,53.3,6.2,52.2c2.7-1.1-2-10.7-2.2-25.3
			c-0.2-14.7,3.1-26.3,3.1-26.3c-4,25.4,3.4,58,6.7,58c3.3,0-2.1-16-2.8-28.5c-0.7-12.5,2.8-28.3,2.8-28.3
			c-4.4,21.8,2.7,49.2,6,47.9C43.6,130.1,37.1,114.4,39.2,97.7L39.2,97.7z"/>
		<path class="st0" d="M46.9,76.7c-0.5,2.8-0.8,5.8-0.7,8.8c0.2,7.4,2.6,14.2,4.6,14.4c1.2,0.1,0.5-9.3,2.3-21.1
			C51,78.1,48.9,77.5,46.9,76.7L46.9,76.7z"/>
	</g>
</g>
</svg>
