<svg width="656" height="275" viewBox="0 0 656 275" fill="none" xmlns="http://www.w3.org/2000/svg">
<path d="M18 11C22.5 9 32.5 5.51019e-09 34.5 0C35.5 -6.10296e-05 35.5 0.499939 35.5 1C35.5 1.99994 33.8751 3.49994 32 6C29 9.99994 24.4098 12.4948 20.5 17.5C10.5 27.9999 8.5 37.4999 9 40C9 41.4999 9.88975 40.6489 10.5 41C12.5 40.4999 22.5 16.9999 24.5 17.5C25 18.4999 24.2953 20.8725 24 22.9999C22.5 28.4999 19.7274 29.5527 19.5 33.4999C19.5 33.9999 20 34.9999 20 34.9999C20.986 36.7254 30.2869 31.4781 42 26.4999C56.5 20.9999 67.5 15.4999 68.5 16.5C69 17.5 68.5813 17.7232 68.5 18.5C67 20.9999 62.0121 23.9812 57.5 27C49.5 30.9999 44 33.4999 33 39C18.5 45.4999 12 50.4999 8 56.5C7.55215 59.1967 7.59744 60.7961 8 63.5C11 73.9999 29.5 83.4999 37.5 83C42.5 83 43.243 79.4999 44.5 77.5C45.5 68.4999 45.5 58 45.5 58C45.5 58 45.3435 53.8019 47 54C48.5 53.9999 48.5 57.5 48.5 57.5C48.5 57.5 49.5 72.4999 48.5 89C50.5 95.9999 51.7374 95.619 55.5 98C61.4999 99.4999 65.4999 99 73.4997 98L73.5 98C75.5 88.4999 73.5 81.4999 72.5 70C72.1739 66.4787 70 61.4999 71.5 61C73.5 60.5 74.5 65 74.5 65C74.5 65 75.5 76 77.5 86C78.5 88.4999 81.5 87 81.5 87C81.5 87 90.5 83.9999 94 79.5C95.4323 76.0776 94 70 94 70C94 70 91.0701 61.8308 89.5 56.4999C86.7834 47.2762 82.5 34.5 84 32.5C85 31.4999 94 59.4999 96.5 60.5C98 59.6511 97.5 56.9999 99 59C98.5 74.4999 99.5 74.4999 102.5 76C107 74.4999 107.626 73.0743 109.5 70C111.5 61.9999 110.276 60.5 109.5 54.5C104.5 38.4999 97.5 15.9999 100 14.5C102.841 13.4999 111.5 39.4999 115 53C116.063 61.9999 115.5 66 115.5 66C115.5 66 117.5 68.9999 120 65C122.337 55.9999 120 48 120 48C117.5 38.9999 114.5 38.4999 113.5 36C112.069 27.4999 113.5 29 113.5 29C113.5 29 115.5 33.9999 118.5 34.5C120 34.4999 115 21.0001 116.5 20C118 18.9999 124 34.9999 124.5 43.5C134 51.4999 130.5 65 130.5 65C127.5 72.4999 124.658 73.1467 120 77.5C97 87 87.5 91.9999 84 95C80.5 98.9999 81.5 101.5 81.5 101.5C81.5 101.5 83.0297 101.608 84 101.5C87.5 93.4999 94 91 94 91C94 91 109.5 83.9999 111.5 86C113 96.4999 104 108 104 108C95.5 118.5 89 118 89 118V122.5C89 122.5 101.5 134 105.5 136C106.5 137.5 105.5 142 105.5 142C105.5 142 101.5 146 99.5 149C98.0718 151.5 98.6916 151.99 97.5 153.5C95 156 84 155.5 84 155.5C84 155.5 80 169.5 94 187C107 195.5 108.5 198.5 108.5 198.5C108.5 198.5 112 209.5 108.5 229C106.5 240 92 258 92 258C92 258 92.1547 260.142 92 261.5C80 259.5 74.5 273 72 274.5C69.5 275 68 274.5 68 274.5C68 274.5 63.5 267.5 57 263C54 261 49 263 47 261.5C46.5768 260.2 47.0228 259.367 47 258C42 247 24.5 237 30 202.5C31.5698 198.983 31 199.5 35 194C36.5 181.5 31 156.5 38.5 132.5C38.5 130.5 38.5 128.103 37 124.5C20.5 119.5 18 113 18 113C12.5 99.9999 14.5 96.4999 12.5 91C17.5 91 17.4271 92.0367 20.5 93C35.5 95.9999 42.5 104.5 42.5 104.5C42.5 104.5 44.5 106 49.5 104.5C45.5 98.9999 41.5 93.4999 27.5 88.4999C10.5 78.9999 4.49999 74.9999 0 62.5C0.999939 29.4999 10.5 21.9999 11.5 17.5C11.9296 14.7722 11.5 11.5 12.5 10.5C13.5 9.5 13.5 13 18 11Z" fill="white"/>
<path d="M246 152.9L234.9 164.75V191H205.5V86H234.9V129.65L275.55 86H308.25L265.35 132.5L310.5 191H276L246 152.9ZM369.893 108.35C379.993 108.35 388.093 111.35 394.193 117.35C400.393 123.35 403.493 132.4 403.493 144.5V191H374.993V149.15C374.993 138.05 370.543 132.5 361.643 132.5C356.743 132.5 352.793 134.1 349.793 137.3C346.893 140.5 345.443 145.3 345.443 151.7V191H316.943V79.7H345.443V117.2C348.543 114.3 352.193 112.1 356.393 110.6C360.593 109.1 365.093 108.35 369.893 108.35ZM456.036 108.35C469.536 108.35 479.836 111.45 486.936 117.65C494.036 123.75 497.586 133.15 497.586 145.85V191H471.036V180.5C466.936 188.4 458.936 192.35 447.036 192.35C440.736 192.35 435.286 191.25 430.686 189.05C426.086 186.85 422.586 183.9 420.186 180.2C417.886 176.4 416.736 172.1 416.736 167.3C416.736 159.6 419.686 153.65 425.586 149.45C431.486 145.15 440.586 143 452.886 143H469.086C468.586 134.4 462.836 130.1 451.836 130.1C447.936 130.1 443.986 130.75 439.986 132.05C435.986 133.25 432.586 134.95 429.786 137.15L420.186 117.8C424.686 114.8 430.136 112.5 436.536 110.9C443.036 109.2 449.536 108.35 456.036 108.35ZM454.986 174.35C458.286 174.35 461.186 173.55 463.686 171.95C466.186 170.35 467.986 168 469.086 164.9V157.85H456.786C448.486 157.85 444.336 160.6 444.336 166.1C444.336 168.6 445.286 170.6 447.186 172.1C449.086 173.6 451.686 174.35 454.986 174.35ZM552.476 162.5L544.076 171.05V191H515.576V79.7H544.076V138.05L573.176 109.7H606.926L573.176 144.5L609.776 191H575.276L552.476 162.5ZM618.115 109.7H646.615V191H618.115V109.7ZM632.365 100.7C627.165 100.7 622.965 99.25 619.765 96.35C616.565 93.45 614.965 89.85 614.965 85.55C614.965 81.25 616.565 77.65 619.765 74.75C622.965 71.85 627.165 70.4 632.365 70.4C637.565 70.4 641.765 71.8 644.965 74.6C648.165 77.3 649.765 80.8 649.765 85.1C649.765 89.6 648.165 93.35 644.965 96.35C641.765 99.25 637.565 100.7 632.365 100.7Z" fill="white"/>
</svg>
