<?xml version="1.0" encoding="UTF-8"?><svg id="Layer_1" xmlns="http://www.w3.org/2000/svg" xmlns:xlink="http://www.w3.org/1999/xlink" viewBox="0 0 692.76 741.47"><defs><style>.cls-1{font-size:169.58px;letter-spacing:.07em;}.cls-1,.cls-2{fill:#6dcaf0;font-family:Lato-Black, Lato;}.cls-3{letter-spacing:.05em;}.cls-4{fill:#f7d444;}.cls-5{fill:#e4a524;}.cls-2{font-size:121.18px;}.cls-6{fill:url(#Gradiente_sem_nome_23);}.cls-7{letter-spacing:.07em;}.cls-8{letter-spacing:.07em;}</style><linearGradient id="Gradiente_sem_nome_23" x1="328.68" y1="102.75" x2="328.68" y2="0" gradientTransform="matrix(1, 0, 0, 1, 0, 0)" gradientUnits="userSpaceOnUse"><stop offset="0" stop-color="#f7d444"/><stop offset="1" stop-color="#f7d444"/></linearGradient></defs><text class="cls-2" transform="translate(0 590.5)"><tspan class="cls-7"><tspan x="0" y="0">COINCARE</tspan></tspan><tspan class="cls-7" x="112.15" y="129.33">G</tspan><tspan class="cls-3" x="206.91" y="129.33">R</tspan><tspan class="cls-8" x="292.94" y="129.33">OUP</tspan></text><g><text class="cls-1" transform="translate(287.08 270.62)"><tspan x="0" y="0">C</tspan></text><g><path class="cls-5" d="M270.48,23.76s20.61-6.51,15.9,0c-1.98,2.74-24.98,19.18-27.38,22.72-10.25,15.07-26.29,33.65-32.72,53.31-8.4,25.68-5.58,51.65-7.97,51.46-3-.24-6.61-10.52-6.99-21.77-.34-9.97,2.21-20.66,4.77-26.5-8.71,10.74-12.31,19.79-15.44,45.1-3.13,25.31,6.73,49.17,1.78,51.26-4.96,2.1-15.78-39.59-9.1-72.56,0,0-5.37,24.01-4.31,42.95,1.06,18.94,9.28,43.18,4.3,43.16-4.98-.03-16.21-49.39-10.15-87.93,0,0-5.04,17.69-4.68,39.91,.36,22.22,7.47,36.76,3.35,38.4-4.13,1.65-17.14-33.09-9.45-79.1,0,0-4.88,14.9-5.28,30.49-.35,13.64,5.61,27.78,.58,28.55-5.03,.76-35.29-111.29,93.23-156.73l9.56-2.71Z"/><path class="cls-6" d="M416.53,22.24s15.72,10.65,11.48,11.36-27.41-2.52-34.45-1.01c-17.19,3.69-41.5,3.89-59.7,13.13-24.1,12.22-40.47,32.58-42.02,30.76-1.95-2.29,2.76-12.12,10.45-20.34,6.81-7.29,16.17-13.04,22.11-15.36-13.75,1.44-22.7,5.28-42.81,20.97-20.11,15.69-30.01,39.53-34.99,37.5-4.99-2.02,16.84-39.16,44.87-57.75,0,0-20.78,13.18-33.42,27.32-12.65,14.14-23.97,37.1-27.47,33.56-3.5-3.54,23.46-46.39,55-69.35,0,0-16.07,8.95-31.53,24.92-15.46,15.97-20.71,31.28-24.79,29.52-4.08-1.75,11.28-35.52,49.25-62.61,0,0-13.98,7.08-25.29,17.82-9.89,9.4-15.68,23.61-19.77,20.6-4.09-3.01,53.74-103.65,176.75-44.9l6.33,3.87Z"/><path class="cls-5" d="M527.41,128.5s4.73,18.18-1.64,13.63c-3.02-2.16-17.07-21.69-21.07-24.36-14.9-9.93-33.76-26.45-52.95-32.72-25.68-8.4-51.65-5.58-51.46-7.97,.24-3,10.52-6.61,21.77-6.99,9.97-.34,20.66,2.21,26.5,4.77-10.74-8.71-19.79-12.31-45.1-15.44-25.31-3.13-49.17,6.73-51.26,1.78-2.1-4.96,39.59-15.78,72.56-9.1,0,0-24.01-5.37-42.95-4.31-18.94,1.06-43.18,9.28-43.16,4.3,.03-4.98,49.39-16.21,87.93-10.15,0,0-17.69-5.04-39.91-4.68-22.22,.36-36.76,7.47-38.4,3.35-1.65-4.13,33.09-17.14,79.1-9.45,0,0-14.9-4.88-30.49-5.28-13.64-.35-27.78,5.61-28.55,.58-.76-5.03,111.29-35.29,156.73,93.23l2.35,8.8Z"/><path class="cls-4" d="M528.42,281.57s-7.11,18.81-9.59,5.17c-1.38-7.55,2.87-44.79,.55-53.83-3.38-13.16-7.84-26.88-13.57-38.18-12.22-24.1-32.58-40.47-30.76-42.02,2.29-1.95,12.12,2.77,20.34,10.45,7.29,6.81,13.04,16.17,15.36,22.11-1.44-13.75-5.28-22.7-20.97-42.81-15.69-20.11-39.53-30.01-37.5-34.99,2.02-4.99,39.16,16.84,57.75,44.87,0,0-13.18-20.78-27.32-33.42-14.14-12.65-37.1-23.97-33.56-27.47,3.54-3.5,46.39,23.46,69.35,55,0,0-8.95-16.07-24.92-31.53-15.97-15.46-31.28-20.71-29.52-24.79,1.75-4.08,35.52,11.28,62.61,49.25,0,0-7.08-13.99-17.82-25.29-9.4-9.89-23.61-15.68-20.6-19.77,3.01-4.09,103.65,53.74,44.9,176.75l-4.73,10.5Z"/><path class="cls-5" d="M418.51,388.08s-18.85,8.88-12.11,0c3.37-4.44,30.91-24.22,34.84-29.98,9.73-14.26,20.04-31.65,25.25-47.58,8.4-25.68,5.58-51.66,7.97-51.46,3,.24,6.61,10.52,6.99,21.77,.34,9.97-2.21,20.66-4.77,26.5,8.71-10.74,12.31-19.79,15.44-45.1,3.13-25.31-6.73-49.17-1.78-51.26,4.96-2.1,15.78,39.59,9.1,72.56,0,0,5.37-24.01,4.31-42.95-1.06-18.94-9.28-43.18-4.3-43.16,4.98,.03,16.21,49.39,10.15,87.93,0,0,5.04-17.69,4.68-39.91-.36-22.22-7.47-36.76-3.35-38.4,4.13-1.65,17.14,33.09,9.45,79.1,0,0,4.88-14.9,5.28-30.49,.35-13.64-5.61-27.78-.58-28.55,5.03-.76,35.29,111.29-93.23,156.73l-13.33,4.25Z"/><path class="cls-4" d="M268.84,386.07s-18.03-5.53-5.68-7.45c6.86-1.06,41.47,2.31,49.89,.44,14.89-3.3,30.95-7.99,43.74-14.48,24.1-12.22,40.47-32.58,42.02-30.76,1.95,2.29-2.76,12.12-10.45,20.34-6.81,7.29-16.17,13.04-22.11,15.36,13.75-1.44,22.7-5.28,42.81-20.97,20.11-15.69,30.01-39.53,34.99-37.5,4.99,2.02-16.84,39.16-44.87,57.75,0,0,20.78-13.18,33.42-27.32,12.65-14.14,23.97-37.1,27.47-33.56,3.5,3.54-23.46,46.39-55,69.35,0,0,16.07-8.95,31.53-24.92,15.46-15.97,20.71-31.28,24.79-29.52,4.08,1.75-11.28,35.52-49.25,62.61,0,0,13.98-7.08,25.29-17.82,9.89-9.4,15.68-23.61,19.77-20.6,4.09,3.01-53.74,103.65-176.75,44.9l-11.62-5.86Z"/><path class="cls-5" d="M165.61,282.58s-13-39.25,24.1,14.39c13,9.97,33.67,22.52,51.29,28.28,25.68,8.4,51.66,5.58,51.46,7.97-.24,3-10.52,6.61-21.77,6.99-9.97,.34-20.66-2.21-26.5-4.77,10.74,8.71,19.79,12.31,45.1,15.44,25.31,3.13,49.17-6.73,51.26-1.78,2.1,4.96-39.59,15.78-72.56,9.1,0,0,24.01,5.37,42.95,4.31,18.94-1.06,43.18-9.28,43.16-4.3-.03,4.98-49.39,16.21-87.93,10.15,0,0,17.69,5.04,39.91,4.68,22.22-.36,36.76-7.47,38.4-3.35,1.65,4.13-33.09,17.14-79.1,9.45,0,0,14.9,4.88,30.49,5.28,13.64,.35,27.78-5.61,28.55-.58,.76,5.03-111.29,35.29-156.73-93.23l-2.09-8.02Z"/><path class="cls-4" d="M164.1,130.27s10.84-17.59,12.24-9.21c.56,3.35-4.98,30.04-4.16,34.2,3.52,17.92,5.52,42.08,14.77,60.31,12.22,24.1,32.58,40.47,30.76,42.02-2.29,1.95-12.12-2.77-20.34-10.45-7.29-6.81-13.04-16.17-15.36-22.11,1.44,13.75,5.29,22.7,20.97,42.81,15.69,20.11,39.53,30.01,37.5,34.99-2.02,4.99-39.16-16.84-57.75-44.87,0,0,13.18,20.78,27.32,33.42,14.14,12.65,37.1,23.97,33.56,27.47-3.54,3.5-46.39-23.46-69.35-55,0,0,8.95,16.07,24.92,31.53,15.97,15.46,31.28,20.71,29.52,24.79-1.75,4.08-35.52-11.28-62.61-49.25,0,0,7.08,13.99,17.82,25.29,9.4,9.89,23.61,15.68,20.6,19.78-3.01,4.09-103.65-53.74-44.9-176.75l4.49-8.96Z"/><path class="cls-5" d="M200.65,148.07c2.02-16.37,4.25-25.92,7.93-33.55-12.4-5.9-22.82-15.52-29.17-28.36-29.82,46.98-15.09,97.54-11.71,97.02,5.03-.76-.93-14.91-.58-28.55,.4-15.59,5.28-30.49,5.28-30.49-7.7,46.01,5.32,80.75,9.45,79.1,4.13-1.64-2.99-16.18-3.35-38.4-.36-22.22,4.68-39.91,4.68-39.91-6.07,38.55,5.17,87.91,10.15,87.93,4.98,.03-3.24-24.21-4.3-43.16-1.06-18.94,4.31-42.95,4.31-42.95-6.68,32.97,4.15,74.66,9.1,72.56,4.95-2.09-4.9-25.95-1.78-51.26Z"/><path class="cls-5" d="M212.36,116.2c-.75,4.24-1.19,8.82-1.04,13.27,.38,11.24,4,21.52,6.99,21.77,1.77,.14,.68-14.14,3.43-32.01-3.22-.78-6.35-1.81-9.39-3.03Z"/></g></g></svg>