<?xml version="1.0" encoding="UTF-8"?><svg id="Layer_1" xmlns="http://www.w3.org/2000/svg" xmlns:xlink="http://www.w3.org/1999/xlink" viewBox="0 0 550.43 550.43"><defs><style>.cls-1{fill:#f7d444;}.cls-2{fill:#e4a524;}.cls-3{fill:url(#Gradiente_sem_nome_23);}.cls-4{fill:#6dcaf0;font-family:Lato-Black, Lato;font-size:227.5px;letter-spacing:.07em;}</style><linearGradient id="Gradiente_sem_nome_23" x1="251.46" y1="137.84" x2="251.46" y2="0" gradientTransform="matrix(1, 0, 0, 1, 0, 0)" gradientUnits="userSpaceOnUse"><stop offset="0" stop-color="#f7d444"/><stop offset="1" stop-color="#f7d444"/></linearGradient></defs><text class="cls-4" transform="translate(195.67 363.05)"><tspan x="0" y="0">C</tspan></text><g><path class="cls-2" d="M173.39,31.87s27.65-8.73,21.33,0c-2.66,3.67-33.51,25.72-36.74,30.47-13.75,20.21-35.27,45.15-43.89,71.51-11.26,34.45-7.49,69.3-10.69,69.04-4.02-.33-8.87-14.12-9.38-29.2-.46-13.38,2.97-27.71,6.4-35.55-11.69,14.41-16.52,26.55-20.71,60.5-4.2,33.95,9.03,65.96,2.38,68.77-6.65,2.81-21.17-53.11-12.21-97.35,0,0-7.2,32.21-5.78,57.62,1.42,25.41,12.45,57.93,5.77,57.89-6.68-.04-21.75-66.25-13.61-117.97,0,0-6.76,23.73-6.27,53.54,.48,29.81,10.03,49.31,4.49,51.52-5.53,2.21-23-44.39-12.67-106.12,0,0-6.55,19.98-7.08,40.9-.47,18.3,7.52,37.27,.78,38.3-6.74,1.02-47.35-149.29,125.07-210.25l12.82-3.64Z"/><path class="cls-3" d="M369.32,29.84s21.09,14.28,15.41,15.24c-5.72,.96-36.77-3.38-46.22-1.35-23.06,4.95-55.68,5.22-80.09,17.61-32.33,16.4-54.3,43.7-56.37,41.26-2.61-3.07,3.71-16.25,14.01-27.28,9.14-9.78,21.7-17.49,29.66-20.61-18.45,1.93-30.45,7.09-57.43,28.13-26.98,21.04-40.26,53.03-46.94,50.31-6.69-2.71,22.58-52.53,60.2-77.47,0,0-27.87,17.69-44.84,36.66-16.96,18.97-32.16,49.77-36.86,45.02-4.7-4.75,31.47-62.23,73.79-93.04,0,0-21.56,12-42.3,33.42-20.74,21.42-27.78,41.96-33.25,39.61-5.47-2.35,15.13-47.65,66.08-84,0,0-18.76,9.5-33.93,23.91-13.27,12.61-21.04,31.68-26.53,27.63-5.49-4.04,72.09-139.05,237.11-60.23l8.49,5.19Z"/><path class="cls-2" d="M518.08,172.38s6.35,24.39-2.2,18.28c-4.05-2.89-22.9-29.09-28.27-32.67-19.99-13.32-45.29-35.48-71.03-43.9-34.45-11.26-69.3-7.49-69.04-10.69,.33-4.02,14.12-8.87,29.2-9.38,13.38-.46,27.71,2.97,35.54,6.4-14.41-11.69-26.55-16.52-60.5-20.71-33.95-4.2-65.96,9.03-68.77,2.38-2.81-6.65,53.11-21.17,97.35-12.21,0,0-32.21-7.2-57.62-5.78-25.41,1.42-57.93,12.45-57.89,5.77,.04-6.68,66.25-21.75,117.97-13.61,0,0-23.73-6.76-53.54-6.27-29.81,.48-49.31,10.03-51.52,4.49-2.21-5.53,44.39-23,106.12-12.67,0,0-19.98-6.55-40.9-7.08-18.3-.47-37.27,7.52-38.3,.78-1.02-6.74,149.29-47.35,210.25,125.07l3.16,11.81Z"/><path class="cls-1" d="M519.43,377.74s-9.54,25.24-12.87,6.94c-1.84-10.13,3.85-60.09,.73-72.22-4.54-17.66-10.51-36.06-18.2-51.22-16.4-32.33-43.7-54.3-41.26-56.37,3.07-2.61,16.25,3.71,27.28,14.01,9.78,9.14,17.49,21.7,20.61,29.66-1.93-18.45-7.09-30.45-28.13-57.43-21.04-26.98-53.03-40.26-50.31-46.94,2.71-6.69,52.53,22.58,77.47,60.2,0,0-17.69-27.87-36.66-44.84-18.97-16.96-49.77-32.16-45.02-36.86,4.75-4.7,62.23,31.47,93.04,73.79,0,0-12-21.56-33.42-42.3-21.42-20.74-41.96-27.78-39.61-33.25,2.35-5.47,47.65,15.13,84,66.08,0,0-9.5-18.76-23.91-33.93-12.61-13.27-31.68-21.04-27.63-26.53,4.04-5.49,139.05,72.09,60.23,237.11l-6.34,14.09Z"/><path class="cls-2" d="M371.98,520.62s-25.28,11.91-16.25,0c4.52-5.96,41.47-32.49,46.74-40.22,13.05-19.13,26.88-42.45,33.87-63.83,11.26-34.45,7.49-69.3,10.69-69.04,4.02,.33,8.87,14.12,9.38,29.2,.46,13.38-2.97,27.71-6.4,35.54,11.69-14.41,16.52-26.55,20.71-60.5,4.2-33.95-9.03-65.96-2.38-68.77,6.65-2.81,21.17,53.11,12.21,97.35,0,0,7.2-32.21,5.78-57.62-1.42-25.41-12.45-57.93-5.77-57.89,6.68,.04,21.75,66.25,13.61,117.97,0,0,6.76-23.73,6.27-53.54-.48-29.81-10.03-49.31-4.49-51.52,5.53-2.21,23,44.39,12.67,106.12,0,0,6.55-19.98,7.08-40.9,.47-18.3-7.52-37.27-.78-38.3,6.74-1.02,47.35,149.29-125.07,210.25l-17.88,5.7Z"/><path class="cls-1" d="M171.19,517.91s-24.19-7.42-7.62-9.99c9.21-1.43,55.63,3.1,66.93,.59,19.97-4.43,41.52-10.72,58.68-19.42,32.33-16.4,54.3-43.7,56.37-41.26,2.61,3.07-3.71,16.25-14.01,27.28-9.14,9.78-21.7,17.49-29.66,20.61,18.45-1.93,30.45-7.09,57.43-28.13,26.98-21.04,40.26-53.03,46.94-50.31,6.69,2.71-22.58,52.53-60.2,77.47,0,0,27.87-17.69,44.84-36.66,16.96-18.97,32.16-49.77,36.86-45.02,4.7,4.75-31.47,62.23-73.79,93.04,0,0,21.56-12,42.3-33.42,20.74-21.42,27.78-41.96,33.25-39.61,5.47,2.35-15.13,47.65-66.08,84,0,0,18.76-9.5,33.93-23.91,13.27-12.61,21.04-31.68,26.53-27.63,5.49,4.04-72.09,139.05-237.11,60.23l-15.58-7.86Z"/><path class="cls-2" d="M32.71,379.09s-17.44-52.65,32.34,19.3c17.44,13.37,45.17,30.21,68.81,37.94,34.45,11.26,69.3,7.49,69.04,10.69-.33,4.02-14.12,8.87-29.2,9.38-13.38,.46-27.71-2.97-35.55-6.4,14.41,11.69,26.55,16.52,60.5,20.71,33.95,4.2,65.96-9.03,68.77-2.38,2.81,6.65-53.11,21.17-97.35,12.21,0,0,32.21,7.2,57.62,5.78,25.41-1.42,57.93-12.45,57.89-5.77-.04,6.68-66.25,21.75-117.97,13.61,0,0,23.73,6.76,53.54,6.27,29.81-.48,49.31-10.03,51.52-4.49,2.21,5.53-44.39,23-106.12,12.67,0,0,19.98,6.55,40.9,7.08,18.3,.47,37.27-7.52,38.3-.78,1.02,6.74-149.29,47.35-210.25-125.07l-2.8-10.76Z"/><path class="cls-1" d="M30.68,174.75s14.54-23.59,16.42-12.36c.75,4.49-6.68,40.29-5.59,45.88,4.72,24.04,7.41,56.45,19.82,80.91,16.4,32.33,43.7,54.3,41.26,56.37-3.07,2.61-16.25-3.71-27.28-14.01-9.78-9.14-17.49-21.7-20.61-29.66,1.93,18.45,7.09,30.45,28.13,57.43,21.04,26.98,53.03,40.26,50.31,46.94-2.71,6.69-52.53-22.58-77.47-60.2,0,0,17.69,27.87,36.66,44.84,18.97,16.96,49.77,32.16,45.02,36.85-4.75,4.7-62.23-31.47-93.04-73.79,0,0,12,21.56,33.42,42.3,21.42,20.74,41.96,27.78,39.61,33.25-2.35,5.47-47.65-15.13-84-66.08,0,0,9.5,18.76,23.91,33.93,12.61,13.27,31.68,21.04,27.63,26.53-4.04,5.49-139.05-72.09-60.23-237.11l6.02-12.02Z"/><path class="cls-2" d="M79.71,198.64c2.71-21.96,5.71-34.78,10.63-45-16.63-7.91-30.62-20.82-39.14-38.04-40.01,63.02-20.24,130.85-15.7,130.16,6.74-1.02-1.25-20-.78-38.3,.53-20.92,7.08-40.9,7.08-40.9-10.33,61.72,7.14,108.32,12.67,106.12,5.54-2.21-4.01-21.71-4.49-51.52-.48-29.81,6.27-53.54,6.27-53.54-8.14,51.71,6.93,117.93,13.61,117.97,6.68,.04-4.35-32.48-5.77-57.89-1.42-25.41,5.78-57.62,5.78-57.62-8.96,44.23,5.56,100.16,12.21,97.35,6.64-2.81-6.58-34.82-2.38-68.77Z"/><path class="cls-2" d="M95.42,155.89c-1,5.69-1.6,11.83-1.39,17.8,.51,15.08,5.36,28.87,9.38,29.2,2.37,.19,.92-18.97,4.61-42.94-4.31-1.05-8.51-2.42-12.6-4.07Z"/></g></svg>